<svg width="45" height="45" viewBox="0 0 45 45" fill="none" xmlns="http://www.w3.org/2000/svg">
<path d="M13.2836 0.599999H15.0836V27H9.68359V7L4.68359 8.6L3.40359 3.84L13.2836 0.599999ZM39.4983 18.32C39.4983 20.9867 38.5249 23.1867 36.5783 24.92C34.6316 26.6267 32.2316 27.48 29.3783 27.48C27.1916 27.48 25.2316 26.9467 23.4983 25.88C21.7916 24.8133 20.4849 23.3467 19.5783 21.48L23.3383 18.84C24.9116 21.2667 26.8716 22.48 29.2183 22.48C30.6049 22.48 31.7383 22.12 32.6183 21.4C33.4983 20.6533 33.9383 19.6533 33.9383 18.4C33.9383 15.8667 32.1383 14.6 28.5383 14.6H22.3783V0.599999H37.9783V5.48H27.5783V10.28C28.6449 10.0667 29.6449 9.96 30.5783 9.96C33.0049 9.96 35.0983 10.72 36.8583 12.24C38.6183 13.7333 39.4983 15.76 39.4983 18.32ZM0.411688 41V32.968H1.00369L4.69969 37.24L8.41169 32.968H8.97169V41H7.29169V36.456L4.98769 39.128H4.39569L2.10769 36.472V41H0.411688ZM17.7309 32.968H18.3069V41H16.6109V36.12L12.0349 41.176H11.4429V33.144H13.1389V38.056L17.7309 32.968ZM20.7711 41V33.144H22.4671V36.152H25.8431V33.144H27.5231V41H25.8431V37.608H22.4671V41H20.7711ZM35.4458 33.144H37.2378L33.4138 41.896C33.0831 42.6427 32.6885 43.1867 32.2298 43.528C31.7711 43.88 31.2058 44.056 30.5338 44.056C30.0858 44.056 29.6538 44.0027 29.2378 43.896V42.472C29.6751 42.5147 29.9845 42.536 30.1658 42.536C30.9765 42.536 31.5471 42.152 31.8778 41.384L32.1978 40.648L29.0618 33.144H30.8698L33.1258 38.856L35.4458 33.144ZM40.3391 41V34.6H37.8111V33.144H44.5471V34.6H42.0191V41H40.3391Z" fill="#1F1246"/>
</svg>
