<svg width="50" height="50" viewBox="0 0 50 50" fill="none" xmlns="http://www.w3.org/2000/svg">
<path d="M25 0C11.215 0 0 11.215 0 25C0 38.785 11.215 50 25 50C38.785 50 50 38.785 50 25C49.9991 11.215 38.785 0 25 0ZM25 45.9705C13.4367 45.9705 4.02948 36.5633 4.02948 24.9991C4.02948 13.4358 13.4367 4.02858 25 4.02858C36.5633 4.02858 45.9705 13.4367 45.9705 25C45.9705 36.5633 36.5633 45.9705 25 45.9705Z" fill="#1F1246"/>
<path d="M32.9692 17.0281L21.3 28.6982L17.0299 24.4282C16.2436 23.641 14.9681 23.641 14.1817 24.4282C13.3945 25.2145 13.3945 26.4901 14.1817 27.2764L19.8763 32.971C20.2695 33.3641 20.7856 33.5616 21.3009 33.5616C21.8161 33.5616 22.3313 33.365 22.7245 32.971L35.8183 19.8772C36.6046 19.09 36.6046 17.8153 35.8183 17.0281C35.0311 16.2418 33.7564 16.2418 32.9692 17.0281Z" fill="#1F1246"/>
</svg>
