<svg width="50" height="50" viewBox="0 0 50 50" fill="none" xmlns="http://www.w3.org/2000/svg">
<path d="M5.8623 5.86395H8.79428V8.79326H5.8623V5.86395Z" fill="#1F1246"/>
<path d="M11.7263 5.86395H14.6583V8.79326H11.7263V5.86395Z" fill="#1F1246"/>
<path d="M17.5898 5.86395H20.5218V8.79326H17.5898V5.86395Z" fill="#1F1246"/>
<path d="M49.9973 0H0V44.1338H16.1263C18.4124 46.6537 21.2582 48.592 24.4827 49.8058L24.9989 50L25.515 49.8058C28.7392 48.592 31.5849 46.6537 33.8711 44.1338H49.9973V0ZM47.068 2.92969V11.7275H2.92969V2.92969H47.068ZM24.9989 46.8613C21.6614 45.4918 18.8217 43.2091 16.7622 40.2325C14.5969 37.1037 13.4525 33.4389 13.4525 29.6337V25.1625C15.5754 24.3179 17.2497 22.6437 18.0943 20.5208H31.9035C32.748 22.6437 34.4223 24.3179 36.5452 25.1625V29.6337C36.5452 33.4389 35.4008 37.1037 33.2355 40.2325C31.1756 43.2087 28.3363 45.4918 24.9989 46.8613ZM36.1061 41.2041C38.3125 37.7407 39.4749 33.7582 39.4749 29.6337V22.9458L38.3572 22.673C36.4212 22.2008 34.8652 20.6448 34.3929 18.7092L34.1202 17.5915H15.8772L15.6044 18.7092C15.1325 20.6448 13.5765 22.2008 11.6405 22.673L10.5228 22.9458V29.6337C10.5228 33.7582 11.6848 37.7407 13.8912 41.2041H2.92969V14.6572H47.068V41.2041H36.1061Z" fill="#1F1246"/>
<path d="M24.999 25.8782C22.2837 25.8782 20.075 28.0873 20.075 30.8022C20.075 33.0075 21.5322 34.8786 23.5341 35.5038V39.4501H26.4634V35.5038C28.4658 34.8786 29.923 33.0075 29.923 30.8022C29.923 28.0873 27.7139 25.8782 24.999 25.8782ZM24.999 32.7965C23.8992 32.7965 23.0043 31.902 23.0043 30.8022C23.0043 29.7024 23.8992 28.8079 24.999 28.8079C26.0987 28.8079 26.9933 29.7024 26.9933 30.8022C26.9933 31.902 26.0987 32.7965 24.999 32.7965Z" fill="#1F1246"/>
</svg>
