<svg width="50" height="50" viewBox="0 0 50 50" fill="none" xmlns="http://www.w3.org/2000/svg">
<path d="M35.9375 48.4375H14.0625C12.8193 48.4375 11.627 47.9436 10.7479 47.0646C9.86886 46.1855 9.375 44.9932 9.375 43.75V6.25C9.375 5.0068 9.86886 3.81451 10.7479 2.93544C11.627 2.05636 12.8193 1.5625 14.0625 1.5625H35.9375C37.1807 1.5625 38.373 2.05636 39.2521 2.93544C40.1311 3.81451 40.625 5.0068 40.625 6.25V43.75C40.625 44.9932 40.1311 46.1855 39.2521 47.0646C38.373 47.9436 37.1807 48.4375 35.9375 48.4375V48.4375ZM14.0625 4.6875C13.6481 4.6875 13.2507 4.85212 12.9576 5.14515C12.6646 5.43817 12.5 5.8356 12.5 6.25V43.75C12.5 44.1644 12.6646 44.5618 12.9576 44.8549C13.2507 45.1479 13.6481 45.3125 14.0625 45.3125H35.9375C36.3519 45.3125 36.7493 45.1479 37.0424 44.8549C37.3354 44.5618 37.5 44.1644 37.5 43.75V6.25C37.5 5.8356 37.3354 5.43817 37.0424 5.14515C36.7493 4.85212 36.3519 4.6875 35.9375 4.6875H14.0625Z" fill="#1F1246"/>
<path d="M39.0625 10.9375H10.9375C10.5231 10.9375 10.1257 10.7729 9.83265 10.4799C9.53962 10.1868 9.375 9.7894 9.375 9.375C9.375 8.9606 9.53962 8.56317 9.83265 8.27015C10.1257 7.97712 10.5231 7.8125 10.9375 7.8125H39.0625C39.4769 7.8125 39.8743 7.97712 40.1674 8.27015C40.4604 8.56317 40.625 8.9606 40.625 9.375C40.625 9.7894 40.4604 10.1868 40.1674 10.4799C39.8743 10.7729 39.4769 10.9375 39.0625 10.9375Z" fill="#1F1246"/>
<path d="M39.0625 39.0625H10.9375C10.5231 39.0625 10.1257 38.8979 9.83265 38.6049C9.53962 38.3118 9.375 37.9144 9.375 37.5C9.375 37.0856 9.53962 36.6882 9.83265 36.3951C10.1257 36.1021 10.5231 35.9375 10.9375 35.9375H39.0625C39.4769 35.9375 39.8743 36.1021 40.1674 36.3951C40.4604 36.6882 40.625 37.0856 40.625 37.5C40.625 37.9144 40.4604 38.3118 40.1674 38.6049C39.8743 38.8979 39.4769 39.0625 39.0625 39.0625Z" fill="#1F1246"/>
<path d="M26.5625 40.625H23.4375V43.75H26.5625V40.625Z" fill="#1F1246"/>
</svg>
