<svg width="73" height="50" viewBox="0 0 73 44" fill="none" xmlns="http://www.w3.org/2000/svg">
<path d="M22.2848 9.208C22.2848 10.3173 21.8848 11.256 21.0848 12.024C20.2955 12.7813 19.3195 13.16 18.1568 13.16C16.9195 13.16 15.9168 12.744 15.1488 11.912C14.3915 11.0693 14.0128 9.97067 14.0128 8.616V7.352C14.0128 6.136 14.1461 5.144 14.4128 4.376C14.9568 2.73333 16.5195 1.72533 19.1008 1.352C20.3275 1.18133 21.1595 1.00533 21.5968 0.823999V2.392C21.1061 2.59467 20.3008 2.76 19.1808 2.888C18.4021 3.00533 17.7781 3.16 17.3088 3.352C16.8395 3.53333 16.4768 3.79467 16.2208 4.136C15.9755 4.46667 15.8101 4.824 15.7248 5.208C15.6501 5.58133 15.6075 6.08267 15.5968 6.712C16.2795 5.74133 17.2395 5.256 18.4768 5.256C19.5221 5.23467 20.4235 5.61867 21.1808 6.408C21.9381 7.19733 22.3061 8.13067 22.2848 9.208ZM20.5568 9.208C20.5568 8.54667 20.3221 7.98133 19.8528 7.512C19.3835 7.04267 18.8128 6.808 18.1408 6.808C17.4795 6.808 16.9141 7.04267 16.4448 7.512C15.9755 7.98133 15.7408 8.54667 15.7408 9.208C15.7408 9.88 15.9755 10.4507 16.4448 10.92C16.9141 11.3893 17.4795 11.624 18.1408 11.624C18.8128 11.624 19.3835 11.3893 19.8528 10.92C20.3221 10.4507 20.5568 9.88 20.5568 9.208ZM23.7122 9.064C23.6909 7.944 24.0909 6.97867 24.9122 6.168C25.7442 5.34667 26.7255 4.94667 27.8562 4.968C28.9975 4.94667 29.9842 5.34667 30.8162 6.168C31.6482 6.98933 32.0535 7.95467 32.0322 9.064C32.0535 10.184 31.6482 11.1547 30.8162 11.976C29.9842 12.7973 28.9975 13.1973 27.8562 13.176C26.7255 13.1973 25.7442 12.7973 24.9122 11.976C24.0909 11.144 23.6909 10.1733 23.7122 9.064ZM30.3042 9.08C30.3042 8.35467 30.0695 7.74667 29.6002 7.256C29.1309 6.75467 28.5549 6.504 27.8722 6.504C27.1789 6.504 26.5975 6.75467 26.1282 7.256C25.6589 7.74667 25.4242 8.35467 25.4242 9.08C25.4242 9.80533 25.6535 10.4133 26.1122 10.904C26.5815 11.384 27.1629 11.624 27.8562 11.624C28.5495 11.624 29.1309 11.3787 29.6002 10.888C30.0695 10.3973 30.3042 9.79467 30.3042 9.08ZM34.6142 5.144H40.3902V13H38.7102V6.6H36.1822L36.1662 7.384C36.1129 9.432 35.8889 10.8987 35.4942 11.784C35.1102 12.6587 34.4542 13.096 33.5262 13.096C33.3022 13.096 33.0995 13.064 32.9182 13V11.592C33.0889 11.6133 33.1955 11.624 33.2382 11.624C33.7075 11.624 34.0435 11.272 34.2462 10.568C34.4489 9.864 34.5609 8.712 34.5822 7.112L34.6142 5.144ZM49.9052 9.624H44.0492C44.1559 10.264 44.4385 10.7707 44.8972 11.144C45.3665 11.5067 45.9372 11.688 46.6092 11.688C47.4412 11.688 48.2039 11.3787 48.8972 10.76L49.6972 11.912C48.8119 12.7547 47.7665 13.176 46.5612 13.176C45.3665 13.176 44.3639 12.7867 43.5532 12.008C42.7425 11.2187 42.3372 10.2427 42.3372 9.08C42.3159 7.94933 42.7105 6.97867 43.5212 6.168C44.3319 5.34667 45.2919 4.94667 46.4012 4.968C47.4359 4.968 48.2999 5.31467 48.9932 6.008C49.6865 6.69067 50.0332 7.544 50.0332 8.568C50.0332 8.87733 49.9905 9.22933 49.9052 9.624ZM44.0812 8.312H48.3532C48.3425 7.72533 48.1452 7.26133 47.7612 6.92C47.3772 6.568 46.9025 6.392 46.3372 6.392C45.7825 6.392 45.2972 6.568 44.8812 6.92C44.4759 7.26133 44.2092 7.72533 44.0812 8.312ZM59.0302 9.624H53.1742C53.2809 10.264 53.5635 10.7707 54.0222 11.144C54.4915 11.5067 55.0622 11.688 55.7342 11.688C56.5662 11.688 57.3289 11.3787 58.0222 10.76L58.8222 11.912C57.9369 12.7547 56.8915 13.176 55.6862 13.176C54.4915 13.176 53.4889 12.7867 52.6782 12.008C51.8675 11.2187 51.4622 10.2427 51.4622 9.08C51.4409 7.94933 51.8355 6.97867 52.6462 6.168C53.4569 5.34667 54.4169 4.94667 55.5262 4.968C56.5609 4.968 57.4249 5.31467 58.1182 6.008C58.8115 6.69067 59.1582 7.544 59.1582 8.568C59.1582 8.87733 59.1155 9.22933 59.0302 9.624ZM53.2062 8.312H57.4782C57.4675 7.72533 57.2702 7.26133 56.8862 6.92C56.5022 6.568 56.0275 6.392 55.4622 6.392C54.9075 6.392 54.4222 6.568 54.0062 6.92C53.6009 7.26133 53.3342 7.72533 53.2062 8.312ZM7.75578 36.55H15.1358V40L0.525781 40.03V39.16L7.60578 31.48C8.60578 30.38 9.31578 29.46 9.73578 28.72C10.1758 27.96 10.3958 27.22 10.3958 26.5C10.3958 25.64 10.1458 24.94 9.64578 24.4C9.14578 23.86 8.47578 23.59 7.63578 23.59C6.79578 23.59 6.11578 23.87 5.59578 24.43C5.09578 24.99 4.84578 25.72 4.84578 26.62C4.84578 26.92 4.89578 27.4 4.99578 28.06H0.915781C0.775781 27.56 0.705781 27 0.705781 26.38C0.705781 24.62 1.35578 23.09 2.65578 21.79C3.97578 20.49 5.65578 19.84 7.69578 19.84C9.67578 19.84 11.3158 20.45 12.6158 21.67C13.9158 22.87 14.5658 24.37 14.5658 26.17C14.5658 27.51 14.2058 28.76 13.4858 29.92C12.7258 31.12 11.6658 32.43 10.3058 33.85L7.75578 36.55ZM18.3753 29.95C18.3753 26.91 19.0453 24.47 20.3853 22.63C21.7253 20.77 23.6753 19.84 26.2353 19.84C28.7953 19.84 30.7353 20.77 32.0553 22.63C33.3953 24.47 34.0653 26.91 34.0653 29.95C34.0653 33.01 33.3853 35.51 32.0253 37.45C30.6653 39.39 28.7353 40.36 26.2353 40.36C23.7153 40.36 21.7753 39.39 20.4153 37.45C19.0553 35.51 18.3753 33.01 18.3753 29.95ZM29.8953 29.98C29.8953 25.72 28.6753 23.59 26.2353 23.59C23.7753 23.59 22.5453 25.72 22.5453 29.98C22.5453 34.4 23.7753 36.61 26.2353 36.61C28.6753 36.61 29.8953 34.4 29.8953 29.98ZM37.4183 29.95C37.4183 26.91 38.0883 24.47 39.4283 22.63C40.7683 20.77 42.7183 19.84 45.2783 19.84C47.8383 19.84 49.7783 20.77 51.0983 22.63C52.4383 24.47 53.1083 26.91 53.1083 29.95C53.1083 33.01 52.4283 35.51 51.0683 37.45C49.7083 39.39 47.7783 40.36 45.2783 40.36C42.7583 40.36 40.8183 39.39 39.4583 37.45C38.0983 35.51 37.4183 33.01 37.4183 29.95ZM48.9383 29.98C48.9383 25.72 47.7183 23.59 45.2783 23.59C42.8183 23.59 41.5883 25.72 41.5883 29.98C41.5883 34.4 42.8183 36.61 45.2783 36.61C47.7183 36.61 48.9383 34.4 48.9383 29.98ZM56.4613 29.95C56.4613 26.91 57.1313 24.47 58.4713 22.63C59.8113 20.77 61.7613 19.84 64.3213 19.84C66.8813 19.84 68.8213 20.77 70.1413 22.63C71.4813 24.47 72.1513 26.91 72.1513 29.95C72.1513 33.01 71.4713 35.51 70.1113 37.45C68.7513 39.39 66.8213 40.36 64.3213 40.36C61.8013 40.36 59.8613 39.39 58.5013 37.45C57.1413 35.51 56.4613 33.01 56.4613 29.95ZM67.9813 29.98C67.9813 25.72 66.7613 23.59 64.3213 23.59C61.8613 23.59 60.6313 25.72 60.6313 29.98C60.6313 34.4 61.8613 36.61 64.3213 36.61C66.7613 36.61 67.9813 34.4 67.9813 29.98Z" fill="#1F1246"/>
</svg>
