<svg width="50" height="50" viewBox="0 0 50 50" fill="none" xmlns="http://www.w3.org/2000/svg">
<path d="M7.42188 23.4375C8.60367 23.4375 9.67331 22.9633 10.4637 22.2019L14.7999 24.3698C14.7781 24.5464 14.7461 24.72 14.7461 24.9023C14.7461 27.3254 16.7175 29.2969 19.1406 29.2969C21.5637 29.2969 23.5352 27.3254 23.5352 24.9023C23.5352 24.226 23.3688 23.5928 23.0946 23.0198L28.9768 17.1375C29.5498 17.4118 30.183 17.5781 30.8594 17.5781C33.2825 17.5781 35.2539 15.6067 35.2539 13.1836C35.2539 12.7274 35.1643 12.2959 35.0346 11.882L40.1455 8.04977C40.8428 8.51555 41.6786 8.78906 42.5781 8.78906C45.0012 8.78906 46.9727 6.81763 46.9727 4.39453C46.9727 1.97144 45.0012 0 42.5781 0C40.155 0 38.1836 1.97144 38.1836 4.39453C38.1836 4.85077 38.2732 5.28221 38.4029 5.69611L33.292 9.52835C32.5947 9.06258 31.7589 8.78906 30.8594 8.78906C28.4363 8.78906 26.4648 10.7605 26.4648 13.1836C26.4648 13.8599 26.6312 14.4932 26.9054 15.0661L21.0232 20.9484C20.4502 20.6741 19.817 20.5078 19.1406 20.5078C17.9588 20.5078 16.8892 20.982 16.0988 21.7434L11.7626 19.5755C11.7844 19.3989 11.8164 19.2253 11.8164 19.043C11.8164 16.6199 9.84497 14.6484 7.42188 14.6484C4.99878 14.6484 3.02734 16.6199 3.02734 19.043C3.02734 21.4661 4.99878 23.4375 7.42188 23.4375Z" fill="#1F1246"/>
<path d="M48.5352 47.0703H46.9727V16.1133C46.9727 15.3038 46.3173 14.6484 45.5078 14.6484H39.6484C38.839 14.6484 38.1836 15.3038 38.1836 16.1133V47.0703H35.2539V24.9023C35.2539 24.0929 34.5985 23.4375 33.7891 23.4375H27.9297C27.1202 23.4375 26.4648 24.0929 26.4648 24.9023V47.0703H23.5352V36.6211C23.5352 35.8116 22.8798 35.1562 22.0703 35.1562H16.2109C15.4015 35.1562 14.7461 35.8116 14.7461 36.6211V47.0703H11.8164V30.7617C11.8164 29.9522 11.161 29.2969 10.3516 29.2969H4.49219C3.68271 29.2969 3.02734 29.9522 3.02734 30.7617V47.0703H1.46484C0.655365 47.0703 0 47.7257 0 48.5352C0 49.3446 0.655365 50 1.46484 50H48.5352C49.3446 50 50 49.3446 50 48.5352C50 47.7257 49.3446 47.0703 48.5352 47.0703Z" fill="#1F1246"/>
</svg>
