<svg width="50" height="50" viewBox="0 0 50 50" fill="none" xmlns="http://www.w3.org/2000/svg">
<path d="M14.0625 11.7188C9.32422 11.7188 5.46875 15.5742 5.46875 20.3125C5.46875 25.0508 9.32422 28.9062 14.0625 28.9062C18.8008 28.9062 22.6562 25.0508 22.6562 20.3125C22.6562 15.5742 18.8008 11.7188 14.0625 11.7188ZM17.9688 22.6562C17.9688 24.3797 16.5672 25.7812 14.8438 25.7812V27.3438H13.2812V25.7812H11.7188V14.8438H13.2812V13.2812H14.8438V14.8438C16.5672 14.8438 17.9688 16.2453 17.9688 17.9688C17.9688 18.9008 17.5586 19.7398 16.9086 20.3125C17.5586 20.8852 17.9688 21.7242 17.9688 22.6562Z" fill="#1F1246"/>
<path d="M14.8438 21.0938H13.2812V24.2188H14.8438C15.7055 24.2188 16.4062 23.518 16.4062 22.6562C16.4062 21.7945 15.7055 21.0938 14.8438 21.0938Z" fill="#1F1246"/>
<path d="M14.8438 16.4062H13.2812V19.5312H14.8438C15.7055 19.5312 16.4062 18.8305 16.4062 17.9688C16.4062 17.107 15.7055 16.4062 14.8438 16.4062Z" fill="#1F1246"/>
<path d="M40.625 16.4062C44.5023 16.4062 47.6562 13.2516 47.6562 9.375C47.6562 5.49844 44.5023 2.34375 40.625 2.34375C36.7477 2.34375 33.5938 5.49844 33.5938 9.375C33.5938 13.2516 36.7477 16.4062 40.625 16.4062ZM41.4062 10.1562H39.8438C38.5516 10.1562 37.5 9.10469 37.5 7.8125V5.46875H39.8438V3.90625H41.4062V5.46875C42.6984 5.46875 43.75 6.52031 43.75 7.8125H42.1875C42.1875 7.38203 41.8375 7.03125 41.4062 7.03125H39.0625V7.8125C39.0625 8.24297 39.4125 8.59375 39.8438 8.59375H41.4062C42.6984 8.59375 43.75 9.64531 43.75 10.9375V13.2812H41.4062V14.8438H39.8438V13.2812C38.5516 13.2812 37.5 12.2297 37.5 10.9375H39.0625C39.0625 11.368 39.4125 11.7188 39.8438 11.7188H42.1875V10.9375C42.1875 10.507 41.8375 10.1562 41.4062 10.1562Z" fill="#1F1246"/>
<path d="M9.375 33.5938C5.49766 33.5938 2.34375 36.7484 2.34375 40.625C2.34375 44.5016 5.49766 47.6562 9.375 47.6562C13.2523 47.6562 16.4062 44.5016 16.4062 40.625C16.4062 36.7484 13.2523 33.5938 9.375 33.5938ZM10.1562 38.2812V39.8438H8.59375V41.4062H10.1562V42.9688H8.59375C8.59375 43.8305 9.29453 44.5312 10.1562 44.5312C11.018 44.5312 11.7188 43.8305 11.7188 42.9688H13.2812C13.2812 44.6922 11.8797 46.0938 10.1562 46.0938C8.43281 46.0938 7.03125 44.6922 7.03125 42.9688H5.46875V41.4062H7.03125V39.8438H5.46875V38.2812H7.03125C7.03125 36.5578 8.43281 35.1562 10.1562 35.1562C11.8797 35.1562 13.2812 36.5578 13.2812 38.2812H11.7188C11.7188 37.4195 11.018 36.7188 10.1562 36.7188C9.29453 36.7188 8.59375 37.4195 8.59375 38.2812H10.1562Z" fill="#1F1246"/>
<path d="M40.625 33.5938C36.7477 33.5938 33.5938 36.7484 33.5938 40.625C33.5938 44.5016 36.7477 47.6562 40.625 47.6562C44.5023 47.6562 47.6562 44.5016 47.6562 40.625C47.6562 36.7484 44.5023 33.5938 40.625 33.5938ZM42.9688 39.8438V41.4062H41.4062V42.9688H42.9688V44.5312H41.4062V46.0938H39.8438V44.5312H38.2812V42.9688H39.8438V41.4062H38.2812V39.8438H39.6242L36.8891 36.4258L38.1094 35.45L40.625 38.593L43.1398 35.4492L44.3602 36.425L41.6258 39.8438H42.9688Z" fill="#1F1246"/>
<path d="M5.97812 8.35703L8.18672 12.0383C8.61016 11.7367 9.05859 11.4695 9.52656 11.2352L7.31875 7.55469C8.09687 6.84063 8.59375 5.82422 8.59375 4.6875C8.59375 2.53359 6.84141 0.78125 4.6875 0.78125C2.53359 0.78125 0.78125 2.53359 0.78125 4.6875C0.78125 6.84141 2.53359 8.59375 4.6875 8.59375C5.14219 8.59375 5.57187 8.50078 5.97812 8.35703Z" fill="#1F1246"/>
<path d="M37.8203 23.8383L24.1656 21.3555C24.1117 21.8821 24.007 22.3915 23.8757 22.8907L37.5374 25.3751C37.7187 26.4883 38.6796 27.3438 39.8437 27.3438C41.1359 27.3438 42.1874 26.2923 42.1874 25.0001C42.1874 23.7079 41.1359 22.6563 39.8437 22.6563C38.9757 22.6563 38.2257 23.1352 37.8203 23.8383Z" fill="#1F1246"/>
<path d="M20.5093 12.4656L23.4476 8.26875C23.9242 8.47578 24.4476 8.59375 25 8.59375C27.1539 8.59375 28.9062 6.84141 28.9062 4.6875C28.9062 2.53359 27.1539 0.78125 25 0.78125C22.8461 0.78125 21.0937 2.53359 21.0937 4.6875C21.0937 5.72578 21.5078 6.66562 22.171 7.36641L19.2234 11.5766C19.6742 11.843 20.1078 12.1352 20.5093 12.4656Z" fill="#1F1246"/>
<path d="M23.721 17.1805L33.0125 13.3547C32.7718 12.8953 32.5679 12.4149 32.4132 11.9117L23.1218 15.7375C23.3554 16.2 23.5593 16.6805 23.721 17.1805Z" fill="#1F1246"/>
<path d="M11.0234 30.0055L10.5359 32.1188C11.0601 32.1899 11.5703 32.3039 12.0601 32.4649L12.5492 30.3438C12.0281 30.2656 11.5156 30.1594 11.0234 30.0055Z" fill="#1F1246"/>
<path d="M22.5767 25.8391C22.2915 26.2773 21.9704 26.689 21.6235 27.0773L33.3587 36.0516C33.6384 35.6086 33.9564 35.1945 34.3095 34.8117L22.5767 25.8391Z" fill="#1F1246"/>
</svg>
