<svg width="50" height="50" viewBox="0 0 50 50" fill="none" xmlns="http://www.w3.org/2000/svg">
<g clip-path="url(#clip0)">
<path d="M49.8955 30.718L47.6989 24.9999L49.8924 19.2787C50.1361 18.6476 49.9424 17.9289 49.4175 17.5039L44.6587 13.6482L43.6963 7.59575C43.59 6.9302 43.0651 6.40527 42.3996 6.29903L36.3472 5.33664L32.4914 0.577837C32.0664 0.0528992 31.3509 -0.137703 30.7166 0.102893L24.9985 2.29951L19.2773 0.106018C18.6461 -0.137703 17.9306 0.0528992 17.5057 0.580961L13.6499 5.33977L7.59746 6.30215C6.93191 6.40839 6.40698 6.93333 6.30074 7.59888L5.33835 13.6513L0.579546 17.5071C0.0546081 17.932 -0.135994 18.6476 0.104602 19.2787L2.29809 24.9999L0.104602 30.7211C-0.135994 31.3523 0.0546081 32.0678 0.579546 32.4928L5.33835 36.3486L6.30074 42.401C6.40698 43.0665 6.93191 43.5915 7.59746 43.6977L13.6499 44.6601L17.5057 49.4189C17.9337 49.947 18.6493 50.1407 19.2804 49.8938L24.9985 47.7004L30.7197 49.8938C30.9009 49.9626 31.0915 49.997 31.279 49.997C31.7383 49.997 32.1914 49.7938 32.4945 49.4189L36.3503 44.6601L42.4027 43.6977C43.0682 43.5915 43.5932 43.0665 43.6994 42.401L44.6618 36.3486L49.4206 32.4928C49.9455 32.0678 50.1361 31.3492 49.8955 30.718ZM44.5618 25.5592L46.5647 30.7774L42.2183 34.2957C41.9184 34.5394 41.7184 34.8831 41.659 35.2643L40.781 40.7855L35.2598 41.6636C34.8786 41.7229 34.5349 41.9229 34.2912 42.2229L30.7791 46.5692L25.5609 44.5663C25.3797 44.5007 25.1891 44.4632 24.9985 44.4632C24.8079 44.4632 24.6173 44.4976 24.4392 44.5663L19.2211 46.5692L15.7027 42.2229C15.459 41.9229 15.1153 41.7229 14.7341 41.6636L9.21289 40.7855L8.33487 35.2643C8.2755 34.8831 8.07553 34.5394 7.77556 34.2957L3.42921 30.7805L5.43209 25.5624C5.56958 25.1999 5.56958 24.8 5.42897 24.4406L3.42921 19.2194L7.77556 15.701C8.07553 15.4573 8.2755 15.1136 8.33487 14.7324L9.21289 9.21118L14.7341 8.33316C15.1153 8.2738 15.459 8.07382 15.7027 7.77385L19.218 3.43062L24.4361 5.43351C24.7954 5.57099 25.1954 5.57099 25.5547 5.43351L30.7728 3.43062L34.2912 7.77698C34.5349 8.07694 34.8786 8.27692 35.2598 8.33629L40.781 9.21431L41.659 14.7355C41.7184 15.1167 41.9184 15.4604 42.2183 15.7042L46.5647 19.2225L44.5618 24.4406C44.4243 24.8 44.4243 25.1999 44.5618 25.5592Z" fill="#1F1246"/>
<path d="M20.3116 12.5014C17.7275 12.5014 15.6246 14.6043 15.6246 17.1883C15.6246 19.7724 17.7275 21.8753 20.3116 21.8753C22.8957 21.8753 24.9985 19.7724 24.9985 17.1883C24.9985 14.6043 22.8957 12.5014 20.3116 12.5014ZM20.3116 18.7507C19.4492 18.7507 18.7493 18.0507 18.7493 17.1883C18.7493 16.3259 19.4492 15.626 20.3116 15.626C21.174 15.626 21.8739 16.3259 21.8739 17.1883C21.8739 18.0507 21.174 18.7507 20.3116 18.7507Z" fill="#1F1246"/>
<path d="M29.6855 28.1246C27.1014 28.1246 24.9985 30.2274 24.9985 32.8115C24.9985 35.3956 27.1014 37.4985 29.6855 37.4985C32.2695 37.4985 34.3724 35.3956 34.3724 32.8115C34.3724 30.2274 32.2695 28.1246 29.6855 28.1246ZM29.6855 34.3738C28.8231 34.3738 28.1232 33.6739 28.1232 32.8115C28.1232 31.9491 28.8231 31.2492 29.6855 31.2492C30.5479 31.2492 31.2478 31.9491 31.2478 32.8115C31.2478 33.6739 30.5479 34.3738 29.6855 34.3738Z" fill="#1F1246"/>
<path d="M33.7192 12.7952C33.0193 12.2952 32.0413 12.4577 31.5414 13.1576L15.9182 35.03C15.4152 35.7299 15.5777 36.7079 16.2776 37.2079C16.5525 37.4047 16.8713 37.4985 17.1868 37.4985C17.6743 37.4985 18.1555 37.2704 18.4586 36.8454L34.0817 14.973C34.5848 14.27 34.4191 13.2951 33.7192 12.7952Z" fill="#1F1246"/>
</g>
<defs>
<clipPath id="clip0">
<rect width="50" height="50" fill="white"/>
</clipPath>
</defs>
</svg>
