<svg width="50" height="50" viewBox="0 0 50 50" fill="none" xmlns="http://www.w3.org/2000/svg">
<path d="M50 7.51953H0V25.0977H3.4977C2.18811 26.8188 2.31743 29.2923 3.8887 30.8632C4.68369 31.6586 5.71022 32.0847 6.75316 32.1419C6.81038 33.1848 7.23648 34.2113 8.03185 35.0067C8.82683 35.8017 9.85336 36.2278 10.8963 36.285C10.9535 37.328 11.3796 38.3545 12.175 39.1499C13.6345 40.6094 15.8203 40.8024 17.4641 39.8594C17.6773 40.3542 17.9859 40.8176 18.3899 41.2212C20.1031 42.9348 22.8912 42.9348 24.6044 41.2212L25.0008 40.8253L25.0175 40.8424C26.7143 42.5388 29.4788 42.5388 31.1806 40.8428L31.2237 40.7997C31.5857 40.4392 31.8764 40.0261 32.0885 39.5775C33.8032 40.8451 36.2457 40.7101 37.8059 39.1495C38.5788 38.377 39.0278 37.3669 39.0862 36.2843C40.1287 36.2267 41.1545 35.8009 41.9491 35.0063C42.7441 34.2117 43.1694 33.186 43.227 32.1434C44.3096 32.085 45.3197 31.636 46.0922 30.8632C47.673 29.2828 47.7932 26.8131 46.484 25.0973H50V7.51953ZM5.96008 28.7918C5.38902 28.2207 5.38902 27.2915 5.96008 26.72L7.58247 25.0977H9.26094C9.68056 25.5142 10.1032 25.9346 10.4969 26.3268L8.03185 28.7918C7.45926 29.3644 6.53267 29.3644 5.96008 28.7918ZM10.1032 32.935C9.53217 32.3639 9.53217 31.4346 10.1032 30.8636L12.571 28.3958L14.6423 30.4676L12.175 32.935C11.6035 33.506 10.6743 33.506 10.1032 32.935ZM16.3181 37.0781C15.7455 37.6507 14.819 37.6507 14.2467 37.0781C13.6753 36.507 13.6753 35.5778 14.2467 35.0067L16.7141 32.539L18.7859 34.6107C15.4255 37.9711 16.6046 36.7916 16.3181 37.0781ZM22.533 39.1499C21.9616 39.7209 21.0323 39.7209 20.4613 39.1499C19.8914 38.5799 19.8902 37.6534 20.4575 37.0819L20.8572 36.6821L22.9286 38.7539L22.533 39.1499ZM44.0208 28.7918C43.4483 29.364 42.5217 29.3644 41.9491 28.7918L33.9142 20.7569L31.8424 22.8283L39.8777 30.8632C40.4488 31.4346 40.4488 32.3639 39.8777 32.935C39.3063 33.506 38.377 33.506 37.8059 32.935L29.771 24.9001L27.6993 26.9714L35.7346 35.0067C36.3068 35.5793 36.3068 36.5055 35.7346 37.0785C35.1631 37.6492 34.2339 37.6495 33.6628 37.0785C33.6628 37.0785 26.8562 30.2715 25.6279 29.0432L23.5561 31.115L29.1508 36.7096C29.7153 37.2742 29.7096 38.1729 29.1576 38.7234L29.1126 38.768C28.553 39.3257 27.6455 39.3269 27.0893 38.7711C19.4244 31.1142 18.0668 29.7306 10.4671 22.168H2.92969V10.4492H15.6609L9.06754 17.0425L12.175 20.15C13.892 21.8674 16.6721 21.8678 18.3899 20.15L21.9589 16.581C25.7008 19.2654 30.7125 19.6957 34.8919 17.5915L44.0208 26.72C44.593 27.2926 44.5934 28.2192 44.0208 28.7918ZM47.0703 22.168H43.6119L35.3546 13.9107L34.3662 14.5287C30.7507 16.79 26.0063 16.378 22.8291 13.5269L21.796 12.6003L16.3181 18.0782C15.7455 18.6508 14.819 18.6508 14.2467 18.0782L13.2107 17.0425L19.804 10.4492H47.0703V22.168Z" fill="#1F1246"/>
</svg>
