<svg width="64" height="29" viewBox="0 0 64 29" fill="none" xmlns="http://www.w3.org/2000/svg">
<path d="M9.91266 22.4H19.7527V27L0.272656 27.04V25.88L9.71266 15.64C11.046 14.1733 11.9927 12.9467 12.5527 11.96C13.1393 10.9467 13.4327 9.96 13.4327 9C13.4327 7.85333 13.0993 6.92 12.4327 6.2C11.766 5.48 10.8727 5.12 9.75266 5.12C8.63266 5.12 7.72599 5.49333 7.03266 6.24C6.36599 6.98667 6.03266 7.96 6.03266 9.16C6.03266 9.56 6.09932 10.2 6.23266 11.08H0.792656C0.60599 10.4133 0.512656 9.66667 0.512656 8.84C0.512656 6.49333 1.37932 4.45333 3.11266 2.72C4.87266 0.986665 7.11266 0.119998 9.83266 0.119998C12.4727 0.119998 14.6593 0.933332 16.3927 2.56C18.126 4.16 18.9927 6.16 18.9927 8.56C18.9927 10.3467 18.5127 12.0133 17.5527 13.56C16.5393 15.16 15.126 16.9067 13.3127 18.8L9.91266 22.4ZM44.352 18.12V22.68H40.992V27H35.592V22.68H22.472V21.24L30.632 0.599999H36.192L29.192 18.12H35.592V10.72H40.992V18.12H44.352ZM44.998 28.936L53.366 14.52H55.238L46.87 28.936H44.998ZM55.9002 16.44H63.1482V16.904L58.0442 27H56.2042L60.8602 17.96H55.9002V16.44Z" fill="#1F1246"/>
</svg>
