<?xml version="1.0" encoding="iso-8859-1"?>
<!-- Generator: Adobe Illustrator 19.0.0, SVG Export Plug-In . SVG Version: 6.00 Build 0)  -->
<svg version="1.1" id="Layer_1" xmlns="http://www.w3.org/2000/svg" xmlns:xlink="http://www.w3.org/1999/xlink" x="0px" y="0px"
	 viewBox="0 0 512.001 512.001" style="enable-background:new 0 0 512.001 512.001;" xml:space="preserve">
<g>
	<g>
		<path d="M507.679,189.353c-2.708-1.91-6.176-2.387-9.3-1.275l-76.712,27.307c-18.171-16.599-45.366-37.685-81.455-55.655
			c3.274-7.449,5.969-13.844,8.02-19.041c5.324-13.483,6.599-18.813,3.659-23.801c-1.742-2.954-4.815-4.891-8.22-5.179
			c-128.301-10.903-203.566,15.184-206.707,16.298c-0.128,0.046-0.248,0.104-0.373,0.154c-28.928,9.495-58.174,29.292-86.212,58.598
			c-30.13,31.492-48.25,62.575-49.007,63.883c-1.828,3.16-1.828,7.056,0,10.216c0.757,1.308,18.878,32.392,49.007,63.883
			c29.303,30.628,59.925,50.87,90.125,59.82c9.867,3.237,60.488,18.388,143.557,18.388c18.848,0,39.378-0.781,61.47-2.658
			c3.412-0.291,6.488-2.232,8.228-5.193c3.011-5.125,1.643-10.557-4.297-25.37c-2.279-5.683-5.241-12.631-8.813-20.679
			c34.055-17.544,60.857-37.679,79.463-53.812l78.271,27.862c1.113,0.396,2.269,0.591,3.42,0.591c2.079,0,4.137-0.635,5.881-1.865
			c2.709-1.911,4.319-5.019,4.319-8.334V197.687C511.998,194.373,510.387,191.265,507.679,189.353z M330.064,131.124
			c-1.681,4.373-4.297,10.765-8.365,20.034c-19.789-8.491-41.866-15.851-66.202-21.096
			C277.49,129.122,302.434,129.23,330.064,131.124z M251.045,381.608c26.04-5.739,49.842-14.075,71.218-23.694
			c4.814,10.866,7.807,18.146,9.66,22.964C301.645,382.949,274.564,382.866,251.045,381.608z M175.563,369.433
			c-18.158,0-35.546-5.171-51.702-13.346c22.597-23.709,38.793-54.374,46.083-87.654c1.206-5.502-2.279-10.94-7.781-12.145
			c-5.502-1.203-10.94,2.277-12.145,7.781c-6.853,31.282-22.477,59.912-44.267,81.347c-42.529-28.601-73.863-74.42-83.571-89.663
			c14.502-22.769,77.197-113.68,153.384-113.68c109.171,0,184.196,47.106,224.137,81.135l-63.983,22.776
			c-4.064,1.446-6.778,5.294-6.778,9.609s2.715,8.161,6.778,9.609l62.12,22.113C355.214,322.023,278.195,369.433,175.563,369.433z
			 M369.551,255.59l97.488-34.703l-25.219,27.857c-3.518,3.886-3.518,9.805,0,13.69l25.219,27.858L369.551,255.59z M491.6,287.028
			l-28.461-31.438l28.461-31.439V287.028z"/>
	</g>
</g>
<g>
	<g>
		<path d="M164.267,216.158c-5.633,0-10.199,4.566-10.199,10.199c0,2.32-0.045,4.66-0.135,6.954
			c-0.218,5.629,4.167,10.37,9.795,10.588c0.135,0.005,0.269,0.007,0.403,0.007c5.451,0,9.972-4.31,10.186-9.803
			c0.099-2.557,0.149-5.163,0.149-7.745C174.466,220.724,169.9,216.158,164.267,216.158z"/>
	</g>
</g>
<g>
	<g>
		<path d="M94.708,221.407c-7.071,0-12.823,5.752-12.823,12.823s5.752,12.825,12.823,12.825s12.823-5.753,12.823-12.825
			S101.78,221.407,94.708,221.407z"/>
	</g>
</g>
<g>
	<g>
		<path d="M229.793,265.715c-1.933-2.137-4.679-3.356-7.561-3.356c-2.881,0-5.628,1.219-7.562,3.354l-55.105,60.872
			c-3.518,3.886-3.518,9.805,0,13.69c9.318,10.292,21.789,15.961,35.114,15.961s25.796-5.669,35.114-15.961
			C248.403,319.72,248.403,286.271,229.793,265.715z M214.672,326.585c-5.401,5.967-12.501,9.253-19.991,9.253
			c-4.52,0-8.898-1.196-12.846-3.457l39.016-43.099C225.846,301.56,223.787,316.516,214.672,326.585z"/>
	</g>
</g>
<g>
</g>
<g>
</g>
<g>
</g>
<g>
</g>
<g>
</g>
<g>
</g>
<g>
</g>
<g>
</g>
<g>
</g>
<g>
</g>
<g>
</g>
<g>
</g>
<g>
</g>
<g>
</g>
<g>
</g>
</svg>
