<?xml version='1.0' encoding='iso-8859-1'?>
<svg version="1.1" xmlns="http://www.w3.org/2000/svg" viewBox="0 0 463 463" xmlns:xlink="http://www.w3.org/1999/xlink" enable-background="new 0 0 463 463">
  <path d="m439,244.909v-17.909h16.5c4.142,0 7.5-3.358 7.5-7.5s-3.358-7.5-7.5-7.5h-48c-4.142,0-7.5,3.358-7.5,7.5s3.358,7.5 7.5,7.5h16.5v17h-41v-158.088c0-10.554-6.969-19.616-16.948-22.036-54.365-13.189-113.093-19.876-174.552-19.876s-120.187,6.687-174.552,19.876c-9.979,2.42-16.948,11.482-16.948,22.036v219.176c0,10.554 6.969,19.616 16.948,22.036 27.718,6.724 56.575,11.748 86.344,15.068l-6.115,29.808h-9.677c-12.958,0-23.5,10.542-23.5,23.5v16c0,4.142 3.358,7.5 7.5,7.5h240c4.142,0 7.5-3.358 7.5-7.5v-16c0-12.958-10.542-23.5-23.5-23.5h-9.677l-6.115-29.808c29.769-3.32 58.626-8.343 86.344-15.068 9.979-2.42 16.948-11.482 16.948-22.036v-14.088h33v8.5c0,8.547 6.953,15.5 15.5,15.5h16c8.547,0 15.5-6.953 15.5-15.5v-24c5.68434e-14-14.785-10.241-27.216-24-30.591zm-247.5,87.091c-32.607,0-65.12-2.038-96.5-5.969v-38.608c31.372,2.365 63.784,3.577 96.5,3.577 32.714,0 65.131-1.213 96.5-3.578v38.609c-31.38,3.931-63.893,5.969-96.5,5.969zm0,15c14.04,0 27.929-0.367 41.664-1.062l5.346,26.062h-94.02l5.346-26.062c13.735,0.695 27.624,1.062 41.664,1.062zm-176.5-218.066c0.478-0.551 2.072-1.591 4.816-1.998 9.17-1.359 18.619-2.616 28.184-3.756v35.77c-10.076,0.432-20.036,0.91-29.688,1.43-0.836,0.045-1.99,0.108-3.312,0.241v-31.687zm-0,46.845c1.068-0.17 2.43-0.329 4.12-0.42 9.392-0.507 19.079-0.973 28.88-1.396v43.074c-9.802-0.423-19.488-0.89-28.88-1.396-1.69-0.091-3.051-0.249-4.12-0.42v-39.442zm0,54.6c1.322,0.133 2.476,0.196 3.312,0.241 9.652,0.52 19.612,0.998 29.688,1.431v35.768c-9.553-1.138-19.007-2.394-28.184-3.754-2.744-0.407-4.338-1.447-4.816-1.998v-31.688zm48-115.647c0-0.018 0-0.035 0-0.053v-44.971c5.618-0.964 11.286-1.866 17-2.703v98.166c0,0.024-0.002,0.047-0.001,0.071 0,0.006 0.001,0.012 0.001,0.018v158.734c-5.714-0.837-11.382-1.738-17-2.703v-206.559zm225,103.956c-31.356,0.867-63.777,1.312-96.5,1.312-32.733,0-65.149-0.445-96.5-1.312v-46.377c31.36-0.867 63.776-1.312 96.5-1.312 32.724,0 65.14,0.445 96.5,1.312v46.377zm-193,15.006c31.36,0.863 63.773,1.306 96.5,1.306 32.717,0 65.135-0.443 96.5-1.306v38.685c-31.345,2.393-63.768,3.621-96.5,3.621-32.734,0-65.152-1.228-96.5-3.621v-38.685zm193-76.388c-31.368-0.863-63.782-1.306-96.5-1.306s-65.131,0.443-96.5,1.306v-38.685c31.345-2.393 63.768-3.621 96.5-3.621s65.155,1.228 96.5,3.621v38.685zm15-90.301c5.714,0.837 11.382,1.738 17,2.703v44.972c0,0.018 0,0.035 0,0.053v206.56c-5.618,0.964-11.286,1.866-17,2.703v-256.991zm32,106.958c9.802,0.423 19.488,0.889 28.88,1.396 1.69,0.091 3.051,0.249 4.12,0.42v39.443c-1.068,0.17-2.43,0.329-4.12,0.42-9.393,0.507-19.079,0.973-28.88,1.396v-43.075zm33-13.342c-1.322-0.133-2.476-0.196-3.312-0.241-9.652-0.52-19.613-0.998-29.688-1.43v-35.77c9.565,1.14 19.014,2.397 28.184,3.756 2.744,0.407 4.338,1.447 4.816,1.998v31.687zm-33,71.429c10.075-0.432 20.035-0.91 29.688-1.431 0.836-0.045 1.99-0.108 3.312-0.241v21.122 10.566c-0.478,0.551-2.072,1.591-4.816,1.998-9.172,1.36-18.622,2.617-28.184,3.756v-35.77zm33-146.138v26.715c-0.85-0.209-1.716-0.396-2.616-0.529-9.877-1.464-20.073-2.807-30.384-4.018v-35.619c9.342,1.824 18.533,3.813 27.516,5.992 3.178,0.771 5.484,3.908 5.484,7.459zm-80-20.943v38.609c-31.369-2.365-63.786-3.578-96.5-3.578s-65.131,1.213-96.5,3.578v-38.609c31.38-3.931 63.893-5.969 96.5-5.969s65.12,2.038 96.5,5.969zm-267.516,13.484c8.983-2.179 18.174-4.169 27.516-5.992v35.619c-10.311,1.211-20.508,2.554-30.384,4.018-0.9,0.133-1.766,0.32-2.616,0.529v-26.715c0-3.551 2.306-6.688 5.484-7.459zm-5.484,226.635v-26.715c0.85,0.209 1.716,0.396 2.616,0.529 9.886,1.465 20.086,2.807 30.384,4.017v35.62c-9.342-1.824-18.533-3.813-27.516-5.992-3.178-0.771-5.484-3.908-5.484-7.459zm103.294,38.615c5.446,0.497 10.91,0.957 16.412,1.342l-5.529,26.955h-16.687l5.804-28.297zm185.706,51.797v8.5h-225v-8.5c0-4.687 3.813-8.5 8.5-8.5h208c4.687,0 8.5,3.813 8.5,8.5zm-33.49-23.5h-16.687l-5.529-26.955c5.502-0.384 10.967-0.845 16.412-1.342l5.804,28.297zm97.49-66.912c0,3.551-2.306,6.688-5.484,7.459-8.983,2.179-18.174,4.169-27.516,5.992v-35.619c10.308-1.211 20.505-2.553 30.384-4.018 0.9-0.133 1.766-0.32 2.616-0.529v5.127 21.588zm80-5.588c0,0.276-0.224,0.5-0.5,0.5h-16c-0.276,0-0.5-0.224-0.5-0.5v-16c0-4.142-3.358-7.5-7.5-7.5h-40.5v-17h48.5c9.098,0 16.5,7.402 16.5,16.5v24z"/>
</svg>
