<?xml version="1.0" encoding="utf-8"?>
<!-- Generator: Adobe Illustrator 26.3.1, SVG Export Plug-In . SVG Version: 6.00 Build 0)  -->
<svg version="1.1" xmlns="http://www.w3.org/2000/svg" xmlns:xlink="http://www.w3.org/1999/xlink" x="0px" y="0px"
	 viewBox="0 0 463 463" style="enable-background:new 0 0 463 463;" xml:space="preserve">
<style type="text/css">
	.st0{fill:#C14E13;}
	.st1{fill:#E0EA0C;}
	.st2{fill:#99997E;}
</style>
<g id="Слой_2">
	<path class="st0" d="M336.2,332H46.8c-19.7,0-35.6-15.9-35.6-35.6V94.6C11.2,74.9,27.1,59,46.8,59h289.4
		c19.7,0,35.6,15.9,35.6,35.6v201.8C371.8,316.1,355.9,332,336.2,332z"/>
</g>
<g id="Слой_3">
	<rect x="383" y="254.8" class="st1" width="65" height="28.4"/>
	<rect x="424" y="279.5" class="st1" width="26.7" height="26.7"/>
	<rect x="248.3" y="340.4" class="st2" width="22.2" height="34.2"/>
	<rect x="110.1" y="340.4" class="st2" width="24.6" height="36.3"/>
	<rect x="75.4" y="383.8" class="st2" width="228.6" height="24.5"/>
</g>
<g id="Слой_4">
</g>
<g id="Слой_1">
	<path d="M439,244.9V227h16.5c4.1,0,7.5-3.4,7.5-7.5s-3.4-7.5-7.5-7.5h-48c-4.1,0-7.5,3.4-7.5,7.5s3.4,7.5,7.5,7.5H424v17h-41V85.9
		c0-10.6-7-19.6-16.9-22C311.7,50.7,253,44,191.5,44S71.3,50.7,16.9,63.9C7,66.3,0,75.4,0,85.9v219.2c0,10.6,7,19.6,16.9,22
		c27.7,6.7,56.6,11.7,86.3,15.1L97.2,372h-9.7c-13,0-23.5,10.5-23.5,23.5v16c0,4.1,3.4,7.5,7.5,7.5h240c4.1,0,7.5-3.4,7.5-7.5v-16
		c0-13-10.5-23.5-23.5-23.5h-9.7l-6.1-29.8c29.8-3.3,58.6-8.3,86.3-15.1c10-2.4,16.9-11.5,16.9-22V291h33v8.5
		c0,8.5,7,15.5,15.5,15.5h16c8.5,0,15.5-7,15.5-15.5v-24C463,260.7,452.8,248.3,439,244.9z M191.5,332c-32.6,0-65.1-2-96.5-6v-38.6
		c31.4,2.4,63.8,3.6,96.5,3.6c32.7,0,65.1-1.2,96.5-3.6V326C256.6,330,224.1,332,191.5,332z M191.5,347c14,0,27.9-0.4,41.7-1.1
		l5.3,26.1h-94l5.3-26.1C163.6,346.6,177.5,347,191.5,347L191.5,347z M15,128.9c0.5-0.6,2.1-1.6,4.8-2c9.2-1.4,18.6-2.6,28.2-3.8
		V159c-10.1,0.4-20,0.9-29.7,1.4c-0.8,0-2,0.1-3.3,0.2V128.9z M15,175.8c1.1-0.2,2.4-0.3,4.1-0.4c9.4-0.5,19.1-1,28.9-1.4V217
		c-9.8-0.4-19.5-0.9-28.9-1.4c-1.7-0.1-3.1-0.2-4.1-0.4L15,175.8L15,175.8z M15,230.4c1.3,0.1,2.5,0.2,3.3,0.2
		c9.7,0.5,19.6,1,29.7,1.4v35.8c-9.6-1.1-19-2.4-28.2-3.8c-2.7-0.4-4.3-1.4-4.8-2V230.4L15,230.4z M63,114.7
		C63,114.7,63,114.7,63,114.7v-45c5.6-1,11.3-1.9,17-2.7v98.2c0,0,0,0,0,0.1c0,0,0,0,0,0V324c-5.7-0.8-11.4-1.7-17-2.7V114.7
		L63,114.7z M288,218.7c-31.4,0.9-63.8,1.3-96.5,1.3c-32.7,0-65.1-0.4-96.5-1.3v-46.4c31.4-0.9,63.8-1.3,96.5-1.3s65.1,0.4,96.5,1.3
		V218.7z M95,233.7c31.4,0.9,63.8,1.3,96.5,1.3c32.7,0,65.1-0.4,96.5-1.3v38.7c-31.3,2.4-63.8,3.6-96.5,3.6
		c-32.7,0-65.2-1.2-96.5-3.6V233.7L95,233.7z M288,157.3c-31.4-0.9-63.8-1.3-96.5-1.3s-65.1,0.4-96.5,1.3v-38.7
		c31.3-2.4,63.8-3.6,96.5-3.6s65.2,1.2,96.5,3.6V157.3z M303,67c5.7,0.8,11.4,1.7,17,2.7v45c0,0,0,0,0,0.1v206.6
		c-5.6,1-11.3,1.9-17,2.7C303,324,303,67,303,67z M335,174c9.8,0.4,19.5,0.9,28.9,1.4c1.7,0.1,3.1,0.2,4.1,0.4v39.4
		c-1.1,0.2-2.4,0.3-4.1,0.4c-9.4,0.5-19.1,1-28.9,1.4V174z M368,160.6c-1.3-0.1-2.5-0.2-3.3-0.2c-9.7-0.5-19.6-1-29.7-1.4v-35.8
		c9.6,1.1,19,2.4,28.2,3.8c2.7,0.4,4.3,1.4,4.8,2V160.6z M335,232c10.1-0.4,20-0.9,29.7-1.4c0.8,0,2-0.1,3.3-0.2v21.1v10.6
		c-0.5,0.6-2.1,1.6-4.8,2c-9.2,1.4-18.6,2.6-28.2,3.8V232L335,232z M368,85.9v26.7c-0.9-0.2-1.7-0.4-2.6-0.5
		c-9.9-1.5-20.1-2.8-30.4-4V72.5c9.3,1.8,18.5,3.8,27.5,6C365.7,79.2,368,82.4,368,85.9z M288,65v38.6c-31.4-2.4-63.8-3.6-96.5-3.6
		s-65.1,1.2-96.5,3.6V65c31.4-3.9,63.9-6,96.5-6S256.6,61,288,65z M20.5,78.5c9-2.2,18.2-4.2,27.5-6v35.6c-10.3,1.2-20.5,2.6-30.4,4
		c-0.9,0.1-1.8,0.3-2.6,0.5V85.9C15,82.4,17.3,79.2,20.5,78.5z M15,305.1v-26.7c0.9,0.2,1.7,0.4,2.6,0.5c9.9,1.5,20.1,2.8,30.4,4
		v35.6c-9.3-1.8-18.5-3.8-27.5-6C17.3,311.8,15,308.6,15,305.1L15,305.1z M118.3,343.7c5.4,0.5,10.9,1,16.4,1.3l-5.5,27h-16.7
		L118.3,343.7z M304,395.5v8.5H79v-8.5c0-4.7,3.8-8.5,8.5-8.5h208C300.2,387,304,390.8,304,395.5z M270.5,372h-16.7l-5.5-27
		c5.5-0.4,11-0.8,16.4-1.3L270.5,372L270.5,372z M368,305.1c0,3.6-2.3,6.7-5.5,7.5c-9,2.2-18.2,4.2-27.5,6v-35.6
		c10.3-1.2,20.5-2.6,30.4-4c0.9-0.1,1.8-0.3,2.6-0.5v5.1V305.1L368,305.1z M448,299.5c0,0.3-0.2,0.5-0.5,0.5h-16
		c-0.3,0-0.5-0.2-0.5-0.5v-16c0-4.1-3.4-7.5-7.5-7.5H383v-17h48.5c9.1,0,16.5,7.4,16.5,16.5V299.5z"/>
</g>
</svg>
