<svg width="800" height="600" xmlns="http://www.w3.org/2000/svg">
 <!-- Created with Method Draw - http://github.com/duopixel/Method-Draw/ -->

 <g>
  <title>background</title>
  <rect fill="none" id="canvas_background"  width="32" height="32" y="0" x="0"/>
  <g display="none" overflow="visible" y="0" x="0" height="100%" width="100%" id="canvasGrid">
   <rect fill="url(#gridpattern)" stroke-width="0" y="0" x="0" height="100%" width="100%"/>
  </g>
 </g>
 <g>
  <title>Layer 1</title>
  <g stroke="null" id="svg_9">
   <path stroke="null" d="m541.05101,562.35654l-13.50054,0l0,-187.50752c0,-3.7314 3.01887,-6.75027 6.75027,-6.75027l56.25226,0c6.61902,0 12.00048,-5.38147 12.00048,-12.00048l0,-168.75677c0,-6.61902 -5.38147,-12.00048 -12.00048,-12.00048l-187.50752,0c-6.61902,0 -12.00048,5.38147 -12.00048,12.00048l0,168.75677c0,6.61902 5.38147,12.00048 12.00048,12.00048l56.25226,0c3.7314,0 6.75027,3.01887 6.75027,6.75027l0,187.50752l-13.50054,0l0,-180.75725l-49.50199,0c-14.06306,0 -25.50102,-11.43796 -25.50102,-25.50102l0,-168.75677c0,-14.06306 11.43796,-25.50102 25.50102,-25.50102l187.50752,0c14.06306,0 25.50102,11.43796 25.50102,25.50102l0,168.75677c0,14.06306 -11.43796,25.50102 -25.50102,25.50102l-49.50199,0l0,180.75725zm-44.25177,-424.51703c-29.56994,0 -53.62715,-24.05721 -53.62715,-53.62715s24.05721,-53.62715 53.62715,-53.62715s53.62715,24.05721 53.62715,53.62715s-24.05721,53.62715 -53.62715,53.62715zm0,-93.75376c-22.12589,0 -40.12661,18.00072 -40.12661,40.12661s18.00072,40.12661 40.12661,40.12661s40.12661,-18.00072 40.12661,-40.12661s-18.00072,-40.12661 -40.12661,-40.12661z" id="svg_7"/>
   <rect stroke="null" x="-23.36228" y="-31.90789" transform="matrix(17.655708550967724,0,0,18.750752004907667,644.306207588497,598.1308390299282) " fill="none" height="32" width="32" id="svg_6"/>
  </g>
  <path d="m467.2005,356.12585c-1.0752,-7.52646 -3.22461,-21.43417 -4.30084,-46.23395c-1.53833,-35.44852 2.15042,-59.13644 0,-59.13644c-2.15042,0 10.95236,19.91608 18.27853,59.13644c6.36688,34.08487 3.22568,54.8356 5.37607,54.8356c1.0752,0 -3.21808,-7.89365 -15.05292,-47.30914c-9.2244,-30.72156 -6.38452,-59.67587 -12.9025,-59.13644c-5.35773,0.44342 10.75208,43.00833 21.50415,75.26456l1.0752,7.52646" id="svg_11" stroke-width="1.5" stroke="#000" fill="none"/>
  <rect id="svg_13" height="196.76307" width="221.49286" y="173.34049" x="383.33428" stroke-width="1.5" stroke="#000" fill="#000000"/>
  <rect id="svg_14" height="199.9887" width="76.33977" y="361.5019" x="456.44842" fill-opacity="null" stroke-opacity="null" stroke-width="1.5" stroke="#000" fill="#000000"/>
  <ellipse stroke="#000" ry="45.15874" rx="42.47072" id="svg_15" cy="84.09822" cx="496.76872" fill-opacity="null" stroke-opacity="null" stroke-width="1.5" fill="#000000"/>
 </g>
</svg>