<?xml version="1.0" encoding="utf-8"?>
<!-- Generator: Adobe Illustrator 26.3.1, SVG Export Plug-In . SVG Version: 6.00 Build 0)  -->
<svg version="1.1" id="Layer_1" xmlns="http://www.w3.org/2000/svg" xmlns:xlink="http://www.w3.org/1999/xlink" x="0px" y="0px"
	 viewBox="0 0 32 32" style="enable-background:new 0 0 32 32;" xml:space="preserve">
<style type="text/css">
	.st0{fill:none;}
	.st1{stroke:#000000;stroke-miterlimit:10;}
</style>
<path id="person--06_1_" d="M18.4,30h-0.7V20c0-0.2,0.2-0.4,0.4-0.4h3c0.4,0,0.6-0.3,0.6-0.6v-9c0-0.4-0.3-0.6-0.6-0.6H11
	c-0.4,0-0.6,0.3-0.6,0.6v9c0,0.4,0.3,0.6,0.6,0.6h3c0.2,0,0.4,0.2,0.4,0.4v10h-0.7v-9.6H11c-0.8,0-1.4-0.6-1.4-1.4v-9
	c0-0.8,0.6-1.4,1.4-1.4h10c0.8,0,1.4,0.6,1.4,1.4v9c0,0.8-0.6,1.4-1.4,1.4h-2.6V30z M16,7.4c-1.6,0-2.9-1.3-2.9-2.9s1.3-2.9,2.9-2.9
	s2.9,1.3,2.9,2.9S17.6,7.4,16,7.4z M16,2.4c-1.2,0-2.1,1-2.1,2.1s1,2.1,2.1,2.1s2.1-1,2.1-2.1S17.2,2.4,16,2.4z"/>
<rect id="_Transparent_Rectangle" class="st0" width="32" height="32"/>
<circle class="st1" cx="16.1" cy="4.4" r="2"/>
<path class="st1" d="M20.3,19.5h-8.7c-0.7,0-1.3-0.6-1.3-1.3v-7.3c0-0.7,0.6-1.3,1.3-1.3h8.7c0.7,0,1.3,0.6,1.3,1.3v7.3
	C21.6,18.9,21,19.5,20.3,19.5z"/>
<rect x="14.2" y="19.7" class="st1" width="3.4" height="9.8"/>
</svg>
