<?xml version="1.0" encoding="utf-8"?>
<!-- Generator: Adobe Illustrator 26.3.1, SVG Export Plug-In . SVG Version: 6.00 Build 0)  -->
<svg version="1.1" xmlns="http://www.w3.org/2000/svg" xmlns:xlink="http://www.w3.org/1999/xlink" x="0px" y="0px"
	 viewBox="0 0 32 32" style="enable-background:new 0 0 32 32;" xml:space="preserve">
<style type="text/css">
	.st0{fill:none;}
</style>
<g id="Layer_1">
	<path id="person--06_1_" d="M18.6,29.5h-0.7v-10c0-0.2,0.2-0.4,0.4-0.4h3c0.4,0,0.6-0.3,0.6-0.6v-9c0-0.4-0.3-0.6-0.6-0.6h-10
		c-0.4,0-0.6,0.3-0.6,0.6v9c0,0.4,0.3,0.6,0.6,0.6h3c0.2,0,0.4,0.2,0.4,0.4v10h-0.7v-9.6h-2.6c-0.8,0-1.4-0.6-1.4-1.4v-9
		c0-0.8,0.6-1.4,1.4-1.4h10c0.8,0,1.4,0.6,1.4,1.4v9c0,0.8-0.6,1.4-1.4,1.4h-2.6V29.5z M16.3,6.8c-1.6,0-2.9-1.3-2.9-2.9
		s1.3-2.9,2.9-2.9s2.9,1.3,2.9,2.9S17.8,6.8,16.3,6.8z M16.3,1.8c-1.2,0-2.1,1-2.1,2.1s1,2.1,2.1,2.1s2.1-1,2.1-2.1
		S17.4,1.8,16.3,1.8z"/>
	<rect id="_Transparent_Rectangle" class="st0" width="32" height="32"/>
</g>
<g id="Слой_2">
	<circle cx="16.3" cy="4" r="2.5"/>
	<path d="M21.6,19.5H11.2c-0.4,0-0.8-0.3-0.8-0.8V9.3c0-0.4,0.3-0.8,0.8-0.8h10.4c0.4,0,0.8,0.3,0.8,0.8v9.5
		C22.4,19.2,22,19.5,21.6,19.5z"/>
	<path d="M14.7,18.8h3.4c0.2,0,0.3,0.1,0.3,0.3v10.1c0,0.2-0.1,0.3-0.3,0.3h-3.4c-0.2,0-0.3-0.1-0.3-0.3V19.1
		C14.4,18.9,14.5,18.8,14.7,18.8z"/>
</g>
</svg>
