<svg width="74" height="105" viewBox="0 0 74 105" fill="none" xmlns="http://www.w3.org/2000/svg">
<path d="M49.0403 67.7458L73.4786 81.3365L49.0299 95.0964L24.5419 81.3699L49.0403 67.7458Z" fill="white"/>
<path d="M9.66809 8.12456L24.5422 6.10352e-05V26.8734L9.66809 35.3849V8.12456Z" fill="#FAC6B1"/>
<path d="M24.5421 6.10352e-05L49.1656 13.2492L49.0406 40.4976L24.5421 26.8734V6.10352e-05Z" fill="#F8A98A"/>
<path d="M7.79272 9.12437H8.79266V36.0484L7.79272 36.6227V9.12437Z" fill="#FAC6B1"/>
<path d="M6.04321 10.1245H7.04315V37.0485L6.04321 37.6228V10.1245Z" fill="#FAC6B1"/>
<path d="M4.04321 11.1244H5.04315V38.1227L4.04321 38.7131V11.1244Z" fill="#FAC6B1"/>
<path d="M2.29346 12.1243H3.2934V39.1661L2.29346 39.7166V12.1243Z" fill="#FAC6B1"/>
<path d="M0.543579 13.1242H1.54352V40.1226L1.04355 40.4975L0.543579 40.6762V13.1242Z" fill="#FAC6B1"/>
<path d="M24.5421 26.7484L49.0405 40.4976L24.5918 54.2575L0.418535 40.7476L24.5421 26.7484Z" fill="white"/>
<path d="M24.5421 54.2468L49.0406 40.4976V67.7459L24.5421 81.3701V54.2468Z" fill="#FAC6B1"/>
</svg>
